<?xml version="1.0" standalone="no"?><!DOCTYPE svg PUBLIC "-//W3C//DTD SVG 1.1//EN" "http://www.w3.org/Graphics/SVG/1.1/DTD/svg11.dtd"><svg t="1719551472892" class="icon" viewBox="0 0 1212 1024" version="1.1" xmlns="http://www.w3.org/2000/svg" p-id="1459" width="37.875" height="32" xmlns:xlink="http://www.w3.org/1999/xlink"><path d="M838.551181 352.836535v318.32693a22.576378 22.576378 0 0 0 36.122205 18.061102l211.895433-159.324724a22.253858 22.253858 0 0 0 0-35.799686l-211.895433-159.324724a22.576378 22.576378 0 0 0-36.122205 18.061102zM48.377953 96.755906h1115.91811a48.377953 48.377953 0 0 0 0-96.755906H48.377953a48.377953 48.377953 0 0 0 0 96.755906zM48.377953 560.539213h632.138582a48.377953 48.377953 0 1 0 0-96.755906H48.377953a48.377953 48.377953 0 1 0 0 96.755906zM1164.296063 927.244094H48.377953a48.377953 48.377953 0 0 0 0 96.755906h1115.91811a48.377953 48.377953 0 0 0 0-96.755906z" fill="#226fb9" p-id="1460"></path></svg>